Coordinates
version=1
nRows=20
nColumns=38
inDegrees=no

Units are S.I. units (second, meters, Newtons, ...)
If the header above contains a line with 'inDegrees', this indicates whether rotational values are in degrees (yes) or radians (no).

endheader
time	pelvis_tilt	pelvis_list	pelvis_rotation	pelvis_tx	pelvis_ty	pelvis_tz	hip_flexion_r	hip_adduction_r	hip_rotation_r	knee_angle_r	ankle_angle_r	subtalar_angle_r	mtp_angle_r	hip_flexion_l	hip_adduction_l	hip_rotation_l	knee_angle_l	ankle_angle_l	subtalar_angle_l	mtp_angle_l	lumbar_extension	lumbar_bending	lumbar_rotation	arm_flex_r	arm_add_r	arm_rot_r	elbow_flex_r	pro_sup_r	wrist_flex_r	wrist_dev_r	arm_flex_l	arm_add_l	arm_rot_l	elbow_flex_l	pro_sup_l	wrist_flex_l	wrist_dev_l
0.48	0.383572	1.26506	1.2755	0.971877	0.383162	1.00867	0.592417	0.109742	-0.0727885	0.284995	-0.224483	0	0	0.0905511	-0.165938	-0.16739	0.672242	-0.302701	0	0	0.198247	0.127449	-0.0834123	-0.139064	-0.277962	0.470266	0.287261	1.12665	0	0	-0.228939	-0.123721	-0.395641	0.416446	0.848508	0	0
0.49	0.397554	1.26115	1.27113	0.971957	0.39586	1.00987	0.584344	0.11257	-0.0810461	0.290671	-0.213411	0	0	0.121625	-0.169301	-0.116124	0.730508	-0.328039	0	0	0.199894	0.129921	-0.0910591	-0.137129	-0.281758	0.477131	0.296941	1.12229	0	0	-0.231082	-0.122174	-0.399753	0.419695	0.854935	0	0
0.5	0.410769	1.25762	1.26934	0.971782	0.408391	1.01097	0.573852	0.113581	-0.0913793	0.291854	-0.204708	0	0	0.154617	-0.170711	-0.0655977	0.790028	-0.358348	0	0	0.20177	0.131531	-0.101427	-0.133982	-0.284018	0.475313	0.304835	1.13595	0	0	-0.234806	-0.121982	-0.397808	0.42566	0.855426	0	0
0.51	0.422009	1.2531	1.27083	0.971359	0.420669	1.01192	0.563854	0.113687	-0.101848	0.291209	-0.194378	0	0	0.190404	-0.169788	-0.015458	0.847228	-0.396039	0	0	0.205276	0.132941	-0.112345	-0.132676	-0.287909	0.47061	0.317276	1.14847	0	0	-0.237816	-0.121805	-0.395802	0.431782	0.858942	0	0
0.52	0.433687	1.24955	1.27264	0.970853	0.432689	1.01301	0.55277	0.113847	-0.113213	0.289511	-0.18479	0	0	0.225076	-0.167597	0.030168	0.899974	-0.428751	0	0	0.207486	0.134361	-0.123188	-0.131759	-0.292205	0.462105	0.332531	1.15855	0	0	-0.239362	-0.121921	-0.393455	0.437617	0.863425	0	0
0.53	0.449294	1.2494	1.27025	0.97033	0.444555	1.01445	0.538088	0.114912	-0.126881	0.287252	-0.176235	0	0	0.254452	-0.165869	0.0627411	0.952276	-0.438973	0	0	0.204839	0.13656	-0.132652	-0.130908	-0.297055	0.449607	0.351016	1.1659	0	0	-0.23935	-0.122238	-0.390249	0.443855	0.867234	0	0
0.54	0.454076	1.24763	1.2756	0.969936	0.456431	1.01598	0.526268	0.114609	-0.13868	0.285349	-0.1694	0	0	0.285564	-0.159631	0.0974928	0.994432	-0.435078	0	0	0.207715	0.13658	-0.136808	-0.132331	-0.300834	0.434485	0.367191	1.1723	0	0	-0.23755	-0.123239	-0.384939	0.444458	0.870573	0	0
0.55	0.454862	1.24672	1.27961	0.96977	0.468612	1.01759	0.512867	0.115082	-0.146526	0.281924	-0.164127	0	0	0.312072	-0.153962	0.115854	1.03363	-0.411769	0	0	0.210507	0.136659	-0.135822	-0.134867	-0.305542	0.418315	0.384896	1.17974	0	0	-0.236673	-0.123806	-0.379416	0.444203	0.872516	0	0
0.56	0.450854	1.24667	1.28449	0.969881	0.480983	1.0193	0.497949	0.115651	-0.150817	0.277226	-0.159962	0	0	0.335947	-0.148333	0.124813	1.06842	-0.37899	0	0	0.213237	0.135937	-0.131114	-0.137799	-0.310238	0.401038	0.403069	1.18816	0	0	-0.236645	-0.124669	-0.373187	0.442903	0.873535	0	0
0.57	0.442151	1.2466	1.2907	0.970168	0.493438	1.02096	0.483049	0.116253	-0.151998	0.272667	-0.15523	0	0	0.359269	-0.144554	0.122311	1.09964	-0.336704	0	0	0.217849	0.134607	-0.122363	-0.141687	-0.319717	0.40312	0.425205	1.16927	0	0	-0.236805	-0.125411	-0.367783	0.439394	0.877267	0	0
0.58	0.435936	1.25181	1.29432	0.970486	0.505704	1.02299	0.46225	0.116537	-0.153398	0.267013	-0.152096	0	0	0.377058	-0.141505	0.11513	1.12676	-0.29587	0	0	0.207359	0.134585	-0.0982533	-0.167396	-0.300693	0.23407	0.456337	1.33378	0	0	-0.226418	-0.132615	-0.3313	0.434823	0.862957	0	0
0.59	0.427486	1.25861	1.30028	0.970912	0.517884	1.02518	0.439623	0.116046	-0.153289	0.259889	-0.150144	0	0	0.393204	-0.13813	0.105593	1.14839	-0.269671	0	0	0.201651	0.129815	-0.0904407	-0.165868	-0.303296	0.226194	0.471965	1.33504	0	0	-0.227431	-0.134043	-0.331199	0.435334	0.867307	0	0
0.6	0.415516	1.26636	1.30854	0.971426	0.530064	1.02743	0.416195	0.114977	-0.151538	0.252012	-0.148888	0	0	0.407385	-0.135356	0.0917678	1.16336	-0.249873	0	0	0.195287	0.123696	-0.0823295	-0.163086	-0.305812	0.22052	0.486692	1.33621	0	0	-0.229049	-0.135935	-0.331069	0.435082	0.872523	0	0
0.61	0.406937	1.27688	1.30987	0.972249	0.542557	1.0298	0.389615	0.115694	-0.151409	0.244552	-0.148028	0	0	0.418781	-0.147231	0.049532	1.17431	-0.232009	0	0	0.186064	0.118613	-0.0712718	-0.160968	-0.309494	0.217062	0.503362	1.33773	0	0	-0.231776	-0.137858	-0.330566	0.435261	0.880189	0	0
0.62	0.383049	1.28143	1.32996	0.972576	0.554364	1.03179	0.371648	0.111108	-0.151853	0.239159	-0.147929	0	0	0.433519	-0.134553	0.0491725	1.17588	-0.217351	0	0	0.18523	0.109761	-0.0652119	-0.156468	-0.312408	0.217513	0.515268	1.33809	0	0	-0.234411	-0.139529	-0.330888	0.432414	0.884791	0	0
0.63	0.386351	1.29848	1.3163	0.973721	0.567124	1.03448	0.33599	0.11465	-0.15128	0.229456	-0.149421	0	0	0.436397	-0.169574	-0.0336021	1.17846	-0.214855	0	0	0.166511	0.107202	-0.0518002	-0.153874	-0.319147	0.220393	0.536951	1.33382	0	0	-0.237207	-0.13982	-0.334535	0.435752	0.890268	0	0
0.64	0.375704	1.30942	1.31932	0.974361	0.579274	1.03675	0.308922	0.113478	-0.152123	0.221689	-0.150946	0	0	0.442865	-0.183596	-0.0819003	1.17273	-0.208089	0	0	0.156612	0.10159	-0.0425784	-0.149887	-0.325789	0.22758	0.555265	1.32501	0	0	-0.240045	-0.139729	-0.338266	0.436013	0.894839	0	0
0.65	0.360404	1.3169	1.32765	0.974793	0.591114	1.03867	0.286169	0.110928	-0.153208	0.213884	-0.152916	0	0	0.451851	-0.190799	-0.118904	1.16263	-0.20135	0	0	0.151372	0.0956321	-0.035835	-0.144647	-0.333508	0.240215	0.572575	1.31006	0	0	-0.243733	-0.138702	-0.343232	0.43561	0.898713	0	0
0.66	0.349872	1.32691	1.33099	0.975152	0.60276	1.04068	0.260906	0.108745	-0.155228	0.206517	-0.156262	0	0	0.45681	-0.198368	-0.156054	1.14873	-0.194291	0	0	0.133966	0.0926729	-0.0112468	-0.165529	-0.313612	0.118699	0.607357	1.434	0	0	-0.232423	-0.141723	-0.323407	0.430025	0.894968	0	0
0.67	0.335675	1.33368	1.33849	0.97543	0.614323	1.04237	0.24023	0.106076	-0.157763	0.201864	-0.158089	0	0	0.464415	-0.204616	-0.191287	1.12951	-0.187578	0	0	0.126226	0.0875966	-0.000285736	-0.166546	-0.317335	0.1098	0.630142	1.43728	0	0	-0.231083	-0.140254	-0.326111	0.42834	0.900733	0	0
